<?xml version="1.0" encoding="UTF-8" standalone="no"?>
<!DOCTYPE svg PUBLIC "-//W3C//DTD SVG 1.1//EN" "http://www.w3.org/Graphics/SVG/1.1/DTD/svg11.dtd">
<svg width="100%" height="100%" viewBox="0 0 517 518" version="1.1" xmlns="http://www.w3.org/2000/svg" xmlns:xlink="http://www.w3.org/1999/xlink" xml:space="preserve" xmlns:serif="http://www.serif.com/" style="fill-rule:evenodd;clip-rule:evenodd;stroke-linejoin:round;">
    <g id="color_0" transform="matrix(0.5,0,0,0.5,0,0)">
        <path d="M646,766L616,776L596,794L584,820L582,845L586,863L594,879L606,893L630,907L659,911L689,903L713,883L725,859L727,828L717,800L699,780L681,770L665,766L646,766ZM851,378L839,372L816,372L743,390L728,390L625,306L605,298L543,284L502,284L384,302L362,314L276,380L262,398L260,415L268,431L286,441L301,441L319,431L336,415L398,369L469,359L456,413L422,513L378,589L351,622L335,626L236,632L226,638L216,652L216,681L228,697L242,703L385,701L397,695L467,617L475,604L481,601L478,647L466,707L402,852L404,873L418,891L436,897L449,895L457,891L469,877L543,721L629,408L633,407L686,449L704,457L727,459L847,429L861,409L861,396L851,378ZM594,124L564,134L544,152L532,176L530,209L540,237L558,257L590,271L617,271L643,261L667,237L677,209L677,186L667,158L651,140L623,126L594,124ZM10,44L6,52L6,977L14,989L22,993L35,993L45,987L51,975L49,78L52,73L981,73L982,951L570,952L554,962L550,977L554,987L568,995L1003,995L1015,991L1023,983L1027,973L1027,56L1023,46L1015,38L1005,34L26,34L10,44Z" style="fill:rgb(0,157,246);fill-rule:nonzero;stroke:rgb(0,157,246);stroke-width:2px;"/>
    </g>
</svg>
