<?xml version="1.0" encoding="UTF-8" standalone="no"?><!DOCTYPE svg PUBLIC "-//W3C//DTD SVG 1.1//EN" "http://www.w3.org/Graphics/SVG/1.1/DTD/svg11.dtd"><svg width="100%" height="100%" viewBox="0 0 40 40" version="1.1" xmlns="http://www.w3.org/2000/svg" xmlns:xlink="http://www.w3.org/1999/xlink" xml:space="preserve" xmlns:serif="http://www.serif.com/" style="fill-rule:evenodd;clip-rule:evenodd;stroke-linejoin:round;"><g id="color_0"><path d="M24.99,29.575l-1.161,0.386l-0.774,0.695l-0.464,1.004l-0.077,0.965l0.155,0.695l0.309,0.618l0.464,0.541l0.928,0.541l1.122,0.154l1.161,-0.309l0.928,-0.772l0.464,-0.927l0.077,-1.197l-0.387,-1.081l-0.696,-0.772l-0.696,-0.386l-0.619,-0.154l-0.735,0Zm7.93,-14.981l-0.464,-0.232l-0.89,0l-2.824,0.695l-0.58,0l-3.985,-3.243l-0.774,-0.309l-2.398,-0.541l-1.586,0l-4.565,0.695l-0.851,0.463l-3.327,2.548l-0.542,0.695l-0.077,0.656l0.309,0.618l0.696,0.386l0.58,0l0.696,-0.386l0.658,-0.618l2.398,-1.776l2.747,-0.386l-0.503,2.085l-1.315,3.861l-1.702,2.934l-1.044,1.274l-0.619,0.154l-3.83,0.232l-0.387,0.232l-0.387,0.541l0,1.12l0.464,0.618l0.542,0.232l5.532,-0.077l0.464,-0.232l2.708,-3.012l0.309,-0.502l0.232,-0.116l-0.116,1.776l-0.464,2.317l-2.476,5.598l0.077,0.811l0.542,0.695l0.696,0.232l0.503,-0.077l0.309,-0.154l0.464,-0.541l2.863,-6.023l3.327,-12.085l0.155,-0.039l2.05,1.622l0.696,0.309l0.89,0.077l4.642,-1.158l0.542,-0.772l0,-0.502l-0.387,-0.695Zm-9.942,-9.807l-1.161,0.386l-0.774,0.695l-0.464,0.927l-0.077,1.274l0.387,1.081l0.696,0.772l1.238,0.541l1.044,0l1.006,-0.386l0.928,-0.927l0.387,-1.081l0,-0.888l-0.387,-1.081l-0.619,-0.695l-1.083,-0.541l-1.122,-0.077Zm-22.592,-3.089l-0.155,0.309l0,35.714l0.309,0.463l0.309,0.154l0.503,0l0.387,-0.232l0.232,-0.463l-0.077,-34.633l0.116,-0.193l35.938,0l0.039,33.9l-15.938,0.039l-0.619,0.386l-0.155,0.579l0.155,0.386l0.542,0.309l16.828,0l0.464,-0.154l0.309,-0.309l0.155,-0.386l0,-35.405l-0.155,-0.386l-0.309,-0.309l-0.387,-0.154l-37.872,0l-0.619,0.386Z" style="fill:#009df6;fill-rule:nonzero;stroke:#009df6;stroke-width:0.08px;"/></g></svg>